<svg width="2400" height="2400" viewBox="0 0 2400 2400" fill="none" xmlns="http://www.w3.org/2000/svg">
<g clip-path="url(#clip0_663_2783)">
<path d="M641.236 413C716.144 413 784.436 419.603 846.126 432.834C907.815 446.052 960.688 467.736 1004.74 497.812C1048.8 527.925 1082.95 567.955 1107.19 617.902C1131.43 667.849 1143.54 729.526 1143.54 802.958C1143.54 882.28 1125.55 948.371 1089.57 1001.23C1053.57 1054.11 1000.34 1097.42 929.85 1131.21C1026.78 1159.13 1099.11 1207.98 1146.86 1277.72C1194.55 1347.5 1218.48 1431.6 1218.48 1529.98C1218.48 1609.29 1203.06 1677.97 1172.19 1735.99C1141.37 1794.03 1099.85 1841.39 1047.74 1878.05C995.591 1914.79 936.102 1941.94 869.286 1959.6C802.05 1977.26 732.811 1986.14 663.296 1986.01H-99V413H641.236ZM597.179 1049.72C658.869 1049.72 709.528 1035.03 749.196 1005.65C788.85 976.284 808.672 928.538 808.672 862.446C808.672 825.743 802.069 795.617 788.851 772.119C775.632 748.634 758.012 730.239 735.977 717.045C713.943 703.815 688.607 694.673 659.969 689.496C630.513 684.294 600.654 681.716 570.743 681.792H246.889V1049.73L597.179 1049.72ZM617 1717.23C650.765 1717.23 683.092 1713.92 713.93 1707.32C744.769 1700.7 771.931 1689.68 795.453 1674.25C818.926 1658.86 837.659 1637.91 851.628 1611.46C865.572 1585.04 872.55 1551.26 872.55 1510.12C872.55 1429.37 849.765 1371.72 804.257 1337.19C758.712 1302.68 698.499 1285.41 623.603 1285.41H246.889V1717.21L617 1717.23ZM1653.75 1684.19C1700.75 1729.76 1768.32 1752.49 1856.44 1752.49C1919.57 1752.49 1973.93 1736.73 2019.45 1705.13C2064.98 1673.59 2092.9 1640.15 2103.17 1604.88H2378.56C2334.51 1741.47 2266.92 1839.16 2175.88 1897.89C2084.79 1956.65 1974.63 1986.01 1845.4 1986.01C1755.81 1986.01 1675.01 1971.69 1603.06 1943.04C1531.07 1914.42 1470.11 1873.65 1420.21 1820.78C1370.27 1767.92 1331.71 1704.8 1304.54 1631.33C1277.35 1557.91 1263.8 1477.12 1263.8 1388.99C1263.8 1303.83 1277.71 1224.52 1305.65 1151.07C1333.53 1077.65 1373.17 1014.13 1424.63 960.489C1476 906.903 1537.34 864.672 1608.58 833.821C1679.8 802.97 1758.75 787.564 1845.41 787.564C1942.35 787.564 2026.79 806.284 2098.79 843.738C2170.73 881.18 2229.86 931.539 2276.14 994.642C2322.4 1057.81 2355.79 1129.79 2376.39 1210.54C2396.95 1291.33 2404.27 1375.77 2398.43 1463.9H1576.67C1581.06 1565.22 1606.72 1638.69 1653.75 1684.19ZM2007.35 1084.96C1969.9 1043.85 1912.97 1023.27 1836.62 1023.27C1786.67 1023.27 1745.19 1031.73 1712.15 1048.6C1679.1 1065.52 1652.65 1086.41 1632.82 1111.39C1613.01 1136.38 1599.03 1162.83 1590.98 1190.7C1582.89 1218.61 1578.11 1243.59 1576.64 1265.61H2085.55C2070.87 1186.29 2044.81 1126.09 2007.35 1084.96ZM1523.22 492.872H2159.07V669.174H1523.22V492.872Z" fill="#8D8D93"/>
</g>
<defs>
<clipPath id="clip0_663_2783">
<rect width="2400" height="2400" fill="white"/>
</clipPath>
</defs>
</svg>
