<svg width="67" height="84" viewBox="0 0 67 84" fill="none" xmlns="http://www.w3.org/2000/svg">
<path d="M49.4941 42.3906C49.1492 42.1612 48.8161 41.9107 48.4622 41.7024C47.0378 40.8604 45.6193 40.0093 44.171 39.2095C43.1808 38.6602 42.1399 38.2045 41.1348 37.6824C40.879 37.5496 40.6739 37.3202 40.4419 37.1331C41.2983 34.1241 42.1578 31.115 43.0142 28.106C44.2811 23.6574 45.5449 19.2057 46.8147 14.7571C47.4154 12.6505 48.034 10.5469 48.6347 8.44024C48.9618 7.29941 49.8837 6.64751 51.0465 6.86179C52.8337 7.19378 53.9905 8.36177 54.7637 9.95834C55.6945 11.8808 55.7272 13.915 55.2187 15.9281C54.6894 18.0196 54.0084 20.0749 53.366 22.1363C51.7691 27.264 50.19 32.3947 48.9261 37.619C48.5217 39.291 48.5871 40.8876 49.4912 42.3906H49.4941Z" fill="#4CAEF8"/>
<path d="M57.5661 57.0081C57.5062 56.6747 57.4552 56.3413 57.3893 56.0109C56.4189 51.3159 54.3551 47.2119 50.9674 43.8203C50.8625 43.7142 50.7697 43.596 50.6738 43.4838C52.3332 40.8347 53.9986 38.1917 55.6491 35.5396C57.3893 32.745 59.1117 29.9353 60.8609 27.1437C61.8614 25.5494 63.6286 25.3676 64.8866 26.774C66.3154 28.3683 66.588 30.296 65.917 32.2661C65.3659 33.8847 64.5991 35.4305 63.8652 36.9763C62.2687 40.3407 60.5494 43.6445 59.0458 47.0513C58.3928 48.5274 58.0453 50.1732 57.7608 51.7766C57.5481 52.9769 57.6529 54.2317 57.617 55.4653C57.602 55.9806 57.584 56.4928 57.5691 57.0081H57.5661Z" fill="#9079FF"/>
<path d="M43.9888 44.398C43.9495 44.337 43.9124 44.2781 43.873 44.217C43.9102 44.2781 43.9495 44.337 43.9888 44.398Z" fill="#763473"/>
<path d="M44.1783 44.5908C44.1388 44.5557 44.0993 44.5229 44.0576 44.4878C44.0971 44.5229 44.1366 44.5557 44.1783 44.5908Z" fill="#763473"/>
<path d="M31.6748 83.1616C30.1684 81.6065 28.7222 34.6934 28.4847 31.2927C28.3644 29.5621 28.3253 27.8255 28.2171 26.0919C28.0667 23.6957 27.8713 21.3056 27.7209 18.9094C27.6187 17.2605 27.5736 15.6086 27.4774 13.9627C27.3 10.8647 27.1106 7.76655 26.9242 4.66846C26.8881 4.06941 26.858 3.47339 26.8099 2.87435C26.6475 0.786763 28.2261 0.00618797 29.6483 0.000136999C31.4343 -0.00893945 32.8445 0.795839 33.975 2.15126C35.4904 3.96957 35.9595 6.17212 36.1579 8.43519C36.3233 10.314 36.3534 12.2049 36.4315 14.0898C36.4857 15.3454 36.5247 16.604 36.5638 17.8596C36.6991 22.3645 36.8495 26.8664 36.9577 31.3714C36.9998 33.1443 37.5741 34.7024 38.6836 36.0337C39.0775 36.5056 39.7149 36.7749 40.2411 37.1349C40.4726 37.3195 40.6831 37.5524 40.9417 37.6856C41.958 38.209 43.0103 38.6688 44.0116 39.2165C45.4759 40.0182 46.9101 40.8744 48.3503 41.7155C48.7111 41.9273 49.526 42.6474 49.526 42.6474C49.5741 42.6927 49.7575 42.8743 49.8116 42.9197C50.0071 43.1042 50.2025 43.2857 50.3979 43.4703C50.4972 43.5822 50.5874 43.7033 50.6926 43.8061C54.0963 47.1886 56.1649 51.2881 57.1391 55.9746C57.2083 56.3044 57.2594 56.6372 57.3165 56.97C57.3826 58.2891 57.521 59.6112 57.4909 60.9273C57.4668 62.0498 57.3466 63.1904 57.088 64.2826C56.64 66.1584 56.186 68.0524 55.4974 69.8434C51.0654 84.3143 34.4681 83.558 31.6718 83.1616H31.6748Z" fill="#00D59C"/>
<path d="M47.4466 55.0585C45.3606 52.3987 42.772 50.2697 39.7111 48.7981C37.9007 47.9266 36.0084 47.221 34.1404 46.4701C32.7901 45.9273 31.4187 45.4388 30.0562 44.9261C29.2539 44.4798 28.4304 44.0607 27.6524 43.5722C27.2679 43.3309 26.9257 42.9962 26.623 42.6524C25.6178 41.5095 25.3605 40.065 25.0184 38.6447C23.4198 32.0466 21.8061 25.4546 20.1834 18.8625C19.6899 16.8662 19.1752 14.8699 18.0489 13.1028C16.8288 11.1879 15.1273 9.97565 12.8203 9.76154C10.5678 9.55045 8.82093 11.4352 9.35378 13.6154C10.1985 17.0864 11.1703 20.5271 12.0877 23.983C13.0262 27.5203 21.9545 79.4122 22.9142 79.9731C27.4495 82.6148 32.3239 83.812 37.5646 83.1335C38.3548 83.0309 39.805 82.663 40.1774 82.5665C40.1834 82.5786 42.9688 81.502 43.4048 81.2548C46.1144 79.7168 48.1157 77.4883 49.578 74.7894C50.6921 72.7297 51.3763 70.5344 51.5792 68.1611C52.003 63.2065 50.4529 58.8913 47.4435 55.0555L47.4466 55.0585Z" fill="#FF7969"/>
<path d="M19.5993 78.151C17.2226 76.0596 15.342 73.5745 13.7109 70.8941C11.0086 66.4529 9.08232 61.654 7.09822 56.8823C5.16889 52.2457 3.16045 47.6512 0.707706 43.258C0.409482 42.7262 0.205595 42.1162 0.0838705 41.5182C-0.381724 39.2194 1.14591 37.7741 3.30956 37.5637C6.23702 37.2783 8.69585 38.339 10.6556 40.4785C12.1619 42.1252 13.1418 44.0784 13.9422 46.1427C14.9007 48.6037 15.9141 51.0437 16.9518 53.4717C17.4782 54.7007 18.376 55.6022 19.7149 55.9928C20.2749 56.1551 20.8409 56.2933 21.4008 56.4435C22.8828 56.711 24.3648 56.9784 25.8468 57.2459C26.3215 57.366 26.8054 57.4562 27.2679 57.6094C29.2033 58.2465 31.1539 58.8535 33.062 59.5656C36.2724 60.7676 38.9047 62.6998 40.6697 65.6776C42.1395 68.1567 42.7056 70.798 42.2217 73.6436C41.8352 75.9123 40.6758 77.7724 39.0873 79.401C37.8579 80.3295 36.6346 81.255 35.1069 81.6877C33.0194 82.2797 30.9318 82.5471 28.7529 82.1715C26.2728 81.7448 23.9844 80.8794 21.8207 79.6414C21.5317 79.4761 20.4879 78.9022 20.4027 78.8181C20.2322 78.6858 20.0588 78.5536 19.8884 78.4214L19.8945 78.4274C19.7971 78.3373 19.6967 78.2471 19.5993 78.157V78.151Z" fill="#FFCF72"/>
</svg>
