<svg width="40" height="48" viewBox="0 0 40 48" fill="none" xmlns="http://www.w3.org/2000/svg">
<path d="M10.4334 47.5295V31.1428H6.10386V47.5295H0.207031V0.283203H6.09972V16.6699H10.4293V0.283203H33.2557C36.8616 0.283203 39.7894 5.85491 39.7894 12.7063C39.7894 17.3041 38.462 21.5112 36.3199 23.6798L36.0966 23.9063L36.3199 24.1328C38.4578 26.3015 39.7894 30.5086 39.7894 35.1064C39.7894 41.9578 36.8616 47.5295 33.264 47.5295H10.4293H10.4334Z" fill="#201E1E"/>
<path d="M33.2761 0.56623C36.758 0.577555 39.5865 6.01903 39.5865 12.7062C39.5865 17.2191 38.288 21.3356 36.2039 23.4533L35.7531 23.9062L36.2039 24.3592C38.2922 26.4769 39.5865 30.5934 39.5865 35.1063C39.5865 41.7991 36.7497 47.2463 33.2679 47.2463H10.6358V30.8596H5.89269V47.2463H0.413522V0.56623H5.89269V16.9529H10.6358V0.56623H33.272M33.2679 0C33.2679 0 33.2637 0 33.2596 0H10.2223V16.3867H6.30621V0H0V47.8125H6.30621V31.4258H10.2223V47.8125H33.2637C36.9813 47.8125 39.9959 42.1219 39.9959 35.1063C39.9959 30.2594 38.5568 26.0466 36.4437 23.9062C38.5568 21.7659 39.9959 17.5531 39.9959 12.7062C39.9959 5.69062 36.9813 0 33.2637 0L33.2679 0Z" fill="#201E1E"/>
</svg>
