<?xml version="1.0" encoding="UTF-8"?><svg id="Layer_2" xmlns="http://www.w3.org/2000/svg" viewBox="0 0 96.73 84.44"><defs><style>.cls-1{fill:#f9f9f9;}</style></defs><g id="Layer_1-2"><path class="cls-1" d="M25.23,83.94v-28.94h-10.47v28.94H.5V.5h14.25v28.94h10.47V.5h55.2c8.72,0,15.8,9.84,15.8,21.94,0,8.12-3.21,15.55-8.39,19.38l-.54.4.54.4c5.17,3.83,8.39,11.26,8.39,19.38,0,12.1-7.08,21.94-15.78,21.94h0s-55.22,0-55.22,0Z"/><path class="cls-1" d="M80.47,1c8.42.02,15.26,9.63,15.26,21.44,0,7.97-3.14,15.24-8.18,18.98l-1.09.8,1.09.8c5.05,3.74,8.18,11.01,8.18,18.98,0,11.82-6.86,21.44-15.28,21.44H25.72v-28.94h-11.47v28.94H1V1h13.25v28.94h11.47V1h54.74s0,0,0,0M80.45,0s-.01,0-.02,0H24.72v28.94h-9.47V0H0v84.44h15.25v-28.94h9.47v28.94h55.72c8.99,0,16.28-10.05,16.28-22.44,0-8.56-3.48-16-8.59-19.78,5.11-3.78,8.59-11.22,8.59-19.78,0-12.39-7.29-22.44-16.28-22.44h0Z"/></g></svg>