<svg width="163" height="107" viewBox="0 0 163 107" fill="none" xmlns="http://www.w3.org/2000/svg">
<g filter="url(#filter0_d_88_19277)">
<path d="M21.9492 25.0757C21.0071 20.5728 25.8275 17.0705 29.8189 19.358L57.3364 35.1286C61.3833 37.448 60.7111 43.4789 56.2529 44.8503L45.3961 48.19C44.2008 48.5577 43.1727 49.3339 42.4918 50.3829L38.0027 57.2981C35.4117 61.2894 29.2867 60.1446 28.3122 55.4869L21.9492 25.0757Z" fill="#188AEC"/>
<path d="M29.5521 19.8235L57.0696 35.5941C60.7093 37.68 60.1048 43.1041 56.0951 44.3375L45.2384 47.6772C43.9228 48.0819 42.7913 48.9362 42.0418 50.0908L37.5527 57.0059C35.2224 60.5956 29.7138 59.5661 28.8373 55.377L22.4744 24.9658C21.627 20.916 25.9624 17.7662 29.5521 19.8235Z" stroke="white" stroke-width="1.07297"/>
</g>
<rect x="44" y="60" width="119" height="47" rx="8.0473" fill="#188AEC"/>
<path d="M71.1246 77.017V89H68.7211V83.9012H63.588V89H61.1846V77.017H63.588V81.9441H68.7211V77.017H71.1246ZM78.3143 89.1545C77.3987 89.1545 76.5747 88.9542 75.8422 88.5536C75.1097 88.1416 74.5317 87.5636 74.1083 86.8197C73.6962 86.0758 73.4902 85.2174 73.4902 84.2446C73.4902 83.2718 73.702 82.4134 74.1254 81.6694C74.5603 80.9255 75.1498 80.3533 75.8937 79.9527C76.6376 79.5407 77.4674 79.3347 78.383 79.3347C79.2986 79.3347 80.1283 79.5407 80.8723 79.9527C81.6162 80.3533 82.1999 80.9255 82.6234 81.6694C83.0583 82.4134 83.2757 83.2718 83.2757 84.2446C83.2757 85.2174 83.0526 86.0758 82.6062 86.8197C82.1713 87.5636 81.5761 88.1416 80.8208 88.5536C80.0768 88.9542 79.2414 89.1545 78.3143 89.1545ZM78.3143 87.0601C78.7492 87.0601 79.1555 86.9571 79.5332 86.751C79.9223 86.5336 80.2314 86.2131 80.4603 85.7897C80.6892 85.3662 80.8036 84.8512 80.8036 84.2446C80.8036 83.3404 80.5633 82.648 80.0826 82.1673C79.6133 81.6752 79.0353 81.4291 78.3486 81.4291C77.6619 81.4291 77.084 81.6752 76.6147 82.1673C76.1569 82.648 75.928 83.3404 75.928 84.2446C75.928 85.1487 76.1512 85.8469 76.5975 86.339C77.0554 86.8197 77.6276 87.0601 78.3143 87.0601ZM88.0431 76.296V89H85.6396V76.296H88.0431ZM90.4005 84.2102C90.4005 83.2489 90.5894 82.3962 90.9671 81.6523C91.3562 80.9084 91.8827 80.3361 92.5465 79.9355C93.2103 79.5349 93.9485 79.3347 94.7611 79.3347C95.3791 79.3347 95.9686 79.472 96.5294 79.7467C97.0902 80.0099 97.5365 80.3647 97.8684 80.8111V76.296H100.306V89H97.8684V87.5923C97.5709 88.0615 97.1531 88.4392 96.6152 88.7253C96.0773 89.0114 95.4535 89.1545 94.7439 89.1545C93.9428 89.1545 93.2103 88.9485 92.5465 88.5365C91.8827 88.1245 91.3562 87.5465 90.9671 86.8026C90.5894 86.0472 90.4005 85.1831 90.4005 84.2102ZM97.8856 84.2446C97.8856 83.6609 97.7711 83.163 97.5422 82.751C97.3133 82.3275 97.0043 82.0071 96.6152 81.7896C96.2261 81.5607 95.8083 81.4463 95.362 81.4463C94.9156 81.4463 94.5036 81.555 94.1259 81.7725C93.7482 81.9899 93.4392 82.3104 93.1989 82.7338C92.97 83.1459 92.8555 83.638 92.8555 84.2102C92.8555 84.7825 92.97 85.2861 93.1989 85.721C93.4392 86.1445 93.7482 86.4706 94.1259 86.6995C94.515 86.9284 94.9271 87.0429 95.362 87.0429C95.8083 87.0429 96.2261 86.9342 96.6152 86.7167C97.0043 86.4878 97.3133 86.1674 97.5422 85.7553C97.7711 85.3319 97.8856 84.8283 97.8856 84.2446ZM112.096 84.0386C112.096 84.3819 112.073 84.6909 112.027 84.9656H105.074C105.131 85.6523 105.372 86.1902 105.795 86.5794C106.219 86.9685 106.74 87.1631 107.358 87.1631C108.25 87.1631 108.885 86.7797 109.263 86.0128H111.855C111.581 86.9284 111.054 87.6838 110.276 88.279C109.498 88.8627 108.542 89.1545 107.409 89.1545C106.493 89.1545 105.669 88.9542 104.937 88.5536C104.216 88.1416 103.649 87.5636 103.237 86.8197C102.837 86.0758 102.636 85.2174 102.636 84.2446C102.636 83.2603 102.837 82.3962 103.237 81.6523C103.638 80.9084 104.199 80.3361 104.92 79.9355C105.641 79.5349 106.471 79.3347 107.409 79.3347C108.313 79.3347 109.12 79.5292 109.83 79.9184C110.551 80.3075 111.106 80.8626 111.495 81.5836C111.895 82.2932 112.096 83.1115 112.096 84.0386ZM109.606 83.3519C109.595 82.7338 109.372 82.2417 108.937 81.8755C108.502 81.4978 107.97 81.3089 107.34 81.3089C106.745 81.3089 106.242 81.4921 105.83 81.8583C105.429 82.2131 105.183 82.7109 105.091 83.3519H109.606ZM119.721 79.3518C120.854 79.3518 121.77 79.7123 122.468 80.4334C123.166 81.143 123.515 82.1387 123.515 83.4205V89H121.112V83.7467C121.112 82.9914 120.923 82.4134 120.545 82.0128C120.168 81.6008 119.653 81.3948 119 81.3948C118.337 81.3948 117.81 81.6008 117.421 82.0128C117.043 82.4134 116.854 82.9914 116.854 83.7467V89H114.451V79.4892H116.854V80.6737C117.175 80.2617 117.581 79.9412 118.073 79.7123C118.577 79.472 119.126 79.3518 119.721 79.3518ZM132.158 89.1202C131.723 89.1202 131.362 88.9886 131.076 88.7253C130.802 88.4506 130.664 88.113 130.664 87.7124C130.664 87.3119 130.802 86.9799 131.076 86.7167C131.362 86.442 131.723 86.3047 132.158 86.3047C132.581 86.3047 132.93 86.442 133.205 86.7167C133.48 86.9799 133.617 87.3119 133.617 87.7124C133.617 88.113 133.48 88.4506 133.205 88.7253C132.93 88.9886 132.581 89.1202 132.158 89.1202ZM142.952 82.854C143.627 82.9799 144.183 83.3175 144.617 83.8669C145.052 84.4163 145.27 85.0457 145.27 85.7553C145.27 86.3963 145.11 86.9628 144.789 87.4549C144.48 87.9356 144.028 88.3133 143.433 88.588C142.838 88.8627 142.134 89 141.321 89H136.154V77.017H141.098C141.911 77.017 142.609 77.1487 143.193 77.4119C143.788 77.6751 144.234 78.0414 144.532 78.5106C144.841 78.9799 144.995 79.5121 144.995 80.1072C144.995 80.8053 144.806 81.389 144.429 81.8583C144.062 82.3275 143.57 82.6594 142.952 82.854ZM138.557 81.9613H140.755C141.327 81.9613 141.768 81.8354 142.077 81.5836C142.386 81.3204 142.54 80.9484 142.54 80.4677C142.54 79.987 142.386 79.6151 142.077 79.3518C141.768 79.0886 141.327 78.957 140.755 78.957H138.557V81.9613ZM140.978 87.0429C141.562 87.0429 142.014 86.9056 142.334 86.6309C142.666 86.3562 142.832 85.9671 142.832 85.4635C142.832 84.9485 142.66 84.5479 142.317 84.2618C141.974 83.9642 141.51 83.8154 140.926 83.8154H138.557V87.0429H140.978Z" fill="white"/>
<defs>
<filter id="filter0_d_88_19277" x="0.501837" y="7.9748" width="80.844" height="83.7441" filterUnits="userSpaceOnUse" color-interpolation-filters="sRGB">
<feFlood flood-opacity="0" result="BackgroundImageFix"/>
<feColorMatrix in="SourceAlpha" type="matrix" values="0 0 0 0 0 0 0 0 0 0 0 0 0 0 0 0 0 0 127 0" result="hardAlpha"/>
<feOffset dy="10.6631"/>
<feGaussianBlur stdDeviation="10.6631"/>
<feColorMatrix type="matrix" values="0 0 0 0 0 0 0 0 0 0 0 0 0 0 0 0 0 0 0.21 0"/>
<feBlend mode="normal" in2="BackgroundImageFix" result="effect1_dropShadow_88_19277"/>
<feBlend mode="normal" in="SourceGraphic" in2="effect1_dropShadow_88_19277" result="shape"/>
</filter>
</defs>
</svg>
