<svg width="24" height="21" viewBox="0 0 24 21" fill="none" xmlns="http://www.w3.org/2000/svg">
<path d="M23.7393 4.11946L20.4174 7.3897C19.7463 15.048 13.1858 21 5.33423 21C3.72104 21 2.39115 20.7484 1.38124 20.2519C0.566864 19.8505 0.23356 19.4207 0.150233 19.2982C0.0759335 19.1885 0.0277748 19.0637 0.00935591 18.9331C-0.00906297 18.8025 0.00273433 18.6695 0.0438658 18.544C0.0849973 18.4186 0.154399 18.3039 0.246887 18.2085C0.339375 18.1131 0.452556 18.0396 0.577974 17.9934C0.606861 17.9824 3.27108 16.9751 4.96315 15.0578C4.02477 14.2983 3.20561 13.4064 2.53225 12.411C1.15459 10.3974 -0.387499 6.89971 0.0880163 1.6728C0.103089 1.50671 0.166056 1.34832 0.269504 1.21629C0.372951 1.08425 0.51257 0.984058 0.67192 0.927516C0.831269 0.870974 1.00371 0.860434 1.16894 0.897138C1.33417 0.933841 1.48531 1.01626 1.60455 1.13469C1.64344 1.17297 5.30201 4.75491 9.77496 5.91645V5.25037C9.77326 4.55191 9.91354 3.86018 10.1875 3.2159C10.4615 2.57163 10.8637 1.98783 11.3704 1.4989C11.8625 1.01517 12.448 0.63337 13.0923 0.376019C13.7367 0.118668 14.427 -0.00901779 15.1223 0.000494997C16.055 0.00955204 16.9696 0.256047 17.7769 0.716015C18.5843 1.17598 19.257 1.83377 19.7297 2.62543H23.1105C23.2864 2.6253 23.4584 2.67654 23.6047 2.77267C23.7509 2.86881 23.865 3.00551 23.9323 3.16548C23.9996 3.32545 24.0172 3.50148 23.9829 3.6713C23.9485 3.84112 23.8638 3.99709 23.7393 4.11946Z" fill="#8D8D93"/>
</svg>
